<?xml version="1.0" encoding="UTF-8"?>
<svg width="10px" height="10px" version="1.1" viewBox="0 0 700 700" xmlns="http://www.w3.org/2000/svg">
 <path d="m288.34 162.44c1.3789 0.98047 2.2852 2.5898 2.2852 4.4141m89.875 61.23-89.879-51.883v207.61l89.594-51.727 0.28125-0.17578 89.906-51.91-89.906-51.906zm-92.164-65.645 97.551 56.312 0.015625 0.011719 0.003906-0.011719 98 56.582c2.5781 1.4961 3.457 4.8008 1.9648 7.3789-0.49219 0.84375-1.1758 1.5117-1.9648 1.9648l-98 56.582-0.3125 0.17578-97.699 56.41c-2.5742 1.4805-5.8789 0.58984-7.3555-1.9883-0.48828-0.84766-0.71484-1.7695-0.71484-2.6875h-0.027344v-226.3c0-2.9883 2.4258-5.4141 5.4141-5.4141 1.1641 0 2.2461 0.375 3.1289 1zm217.12-37.906c-39.781-39.781-94.758-64.398-155.46-64.398-60.711 0-115.68 24.617-155.47 64.398-39.785 39.785-64.398 94.758-64.398 155.47s24.617 115.68 64.398 155.47c39.785 39.785 94.758 64.398 155.47 64.398s115.68-24.613 155.46-64.398c39.785-39.785 64.398-94.758 64.398-155.47s-24.617-115.68-64.398-155.47zm-155.46-75.223c63.691 0 121.38 25.828 163.12 67.57 41.742 41.742 67.57 99.418 67.57 163.12 0 63.695-25.828 121.38-67.57 163.12-41.742 41.742-99.43 67.57-163.12 67.57-63.703 0-121.38-25.828-163.12-67.57-41.742-41.742-67.57-99.43-67.57-163.12 0-63.703 25.828-121.38 67.57-163.12 41.742-41.742 99.418-67.57 163.12-67.57zm184.15 46.543c-47.117-47.117-112.23-76.273-184.14-76.273-71.918 0-137.03 29.148-184.15 76.273-47.117 47.121-76.277 112.23-76.277 184.14 0 71.918 29.152 137.03 76.277 184.16 47.117 47.117 112.23 76.273 184.14 76.273 71.918 0 137.03-29.148 184.15-76.273 47.121-47.121 76.277-112.23 76.277-184.14 0-71.918-29.152-137.03-76.277-184.16zm-184.14-87.102c74.902 0 142.72 30.371 191.8 79.449 49.082 49.086 79.445 116.91 79.445 191.81 0 74.898-30.371 142.72-79.445 191.8-49.086 49.082-116.91 79.445-191.81 79.445-74.898 0-142.72-30.367-191.8-79.445-49.086-49.086-79.449-116.91-79.449-191.81s30.371-142.72 79.449-191.8c49.082-49.082 116.91-79.449 191.81-79.449z" fill-rule="evenodd"/>
</svg>
